# xmcd
#
# Track frame offsets: 
#        150
#        14712
#        31884
#        63323
#        82634
#        99541
#        127624
#        143487
#        174162
#
# Disc length: 2800 seconds
#
# Revision: 0
# Processed by: cddbd v1.5.2PL0 Copyright (c) Steve Scherf et al.
# Submitted via: ExactAudioCopy v1.3
#
DISCID=5d0aee09
DTITLE=Andreas Diehlmann Band - Your Blues Ain't Mine
DYEAR=2018
DGENRE=Blues Rock
TTITLE0=Come On Into My Kitchen
TTITLE1=Your Blues Ain't Mine
TTITLE2=I Don't Wanna Lose You
TTITLE3=I Don't Know
TTITLE4=Head Down Low
TTITLE5=Little Wing
TTITLE6=Going Home
TTITLE7=Soulshine
TTITLE8=Fucking Happy Blues
EXTD=
EXTT0=
EXTT1=
EXTT2=
EXTT3=
EXTT4=
EXTT5=
EXTT6=
EXTT7=
EXTT8=
PLAYORDER=
